<svg xmlns="http://www.w3.org/2000/svg" viewBox="0 0 64 64"><style>path{fill:#0f0f0f}@media (prefers-color-scheme:dark){path{fill:#f0ede8}}</style><path d="M20.41 45.53C19.96 45.45 19.68 45.34 19.16 44.92C18.65 44.50 17.75 43.53 17.32 43.00C16.88 42.48 16.75 42.21 16.55 41.76C16.35 41.31 16.19 41.69 16.13 40.31C16.08 38.92 16.34 35.22 16.24 33.46C16.13 31.69 15.55 30.48 15.51 29.72C15.46 28.96 15.59 29.20 15.99 28.89C16.39 28.58 17.48 28.19 17.92 27.88C18.36 27.57 18.43 27.45 18.63 27.02C18.84 26.59 19.00 26.18 19.16 25.32C19.33 24.45 19.61 22.59 19.63 21.83C19.65 21.08 19.63 21.18 19.28 20.79C18.93 20.41 17.94 19.91 17.50 19.53C17.06 19.15 16.84 18.85 16.62 18.51C16.40 18.17 16.25 17.78 16.20 17.47C16.15 17.16 16.12 16.97 16.30 16.64C16.49 16.32 16.89 15.82 17.29 15.51C17.70 15.21 17.67 14.86 18.75 14.81C19.82 14.77 22.55 15.24 23.73 15.24C24.90 15.25 25.18 15.03 25.80 14.84C26.43 14.66 26.90 14.53 27.46 14.14C28.03 13.75 28.49 13.56 29.18 12.49C29.86 11.42 30.60 9.16 31.59 7.72C32.59 6.28 34.31 4.63 35.14 3.86C35.98 3.08 36.01 3.14 36.60 3.05C37.19 2.96 38.09 3.09 38.67 3.31C39.25 3.54 39.67 3.85 40.09 4.40C40.50 4.94 40.85 6.04 41.16 6.56C41.48 7.08 41.01 6.89 41.98 7.51C42.95 8.13 46.04 9.67 46.98 10.29C47.91 10.92 47.42 10.84 47.59 11.25C47.75 11.65 47.83 11.76 47.98 12.70C48.13 13.63 48.45 15.81 48.50 16.85C48.56 17.89 48.49 18.27 48.31 18.93C48.13 19.58 47.98 20.03 47.42 20.79C46.86 21.55 45.43 22.77 44.92 23.49C44.41 24.22 44.45 24.43 44.36 25.15C44.26 25.88 44.23 26.74 44.33 27.85C44.44 28.96 44.95 30.62 44.96 31.79C44.98 32.97 44.49 33.77 44.42 34.91C44.35 36.05 44.58 37.75 44.54 38.64C44.49 39.54 44.44 39.71 44.15 40.31C43.86 40.90 43.22 41.79 42.82 42.22C42.43 42.65 42.17 42.72 41.79 42.90C41.41 43.08 41.86 43.19 40.54 43.32C39.23 43.44 35.25 43.67 33.90 43.67C32.55 43.67 33.10 43.61 32.45 43.34C31.79 43.07 30.51 42.29 29.96 42.05C29.40 41.82 29.40 41.90 29.12 41.93C28.85 41.96 28.99 41.80 28.29 42.23C27.60 42.66 26.05 43.98 24.97 44.51C23.90 45.04 22.62 45.24 21.86 45.41C21.10 45.58 20.86 45.62 20.41 45.53ZM38.47 60.93C38.25 60.77 38.01 60.66 37.79 60.02C37.57 59.39 37.37 57.64 37.17 57.12C36.97 56.60 37.11 56.95 36.60 56.89C36.09 56.84 34.73 56.87 34.11 56.80C33.48 56.72 33.28 56.63 32.86 56.44C32.44 56.26 31.94 55.97 31.60 55.67C31.26 55.36 31.00 55.01 30.82 54.63C30.64 54.25 30.54 53.76 30.52 53.38C30.51 53.00 30.45 52.88 30.73 52.34C31.02 51.81 31.85 50.65 32.24 50.16C32.63 49.66 32.65 49.54 33.07 49.37C33.48 49.20 33.80 49.07 34.73 49.15C35.66 49.22 37.46 49.71 38.67 49.83C39.88 49.95 41.27 49.81 41.99 49.87C42.72 49.93 42.78 50.05 43.03 50.18C43.28 50.32 43.41 50.43 43.50 50.68C43.59 50.94 43.66 51.31 43.59 51.72C43.52 52.14 43.66 52.31 43.09 53.17C42.52 54.04 40.72 55.74 40.17 56.91C39.62 58.09 39.95 59.56 39.77 60.23C39.59 60.90 39.30 60.83 39.09 60.95C38.87 61.06 38.68 61.08 38.47 60.93Z"/></svg>
